<svg width="251" height="251" viewBox="0 0 251 251" fill="none" xmlns="http://www.w3.org/2000/svg">
<path d="M214.938 27.6953H35.25C30.9287 27.6953 27.4375 31.1865 27.4375 35.5078V215.195C27.4375 219.517 30.9287 223.008 35.25 223.008H214.938C219.259 223.008 222.75 219.517 222.75 215.195V35.5078C222.75 31.1865 219.259 27.6953 214.938 27.6953ZM207.125 207.383H162.179V147.373H187.569L191.378 117.905H162.179V99.082C162.179 90.5371 164.547 84.7266 176.778 84.7266H192.379V58.3594C189.669 57.9932 180.416 57.1875 169.625 57.1875C147.115 57.1875 131.71 70.9326 131.71 96.1523V117.881H106.271V147.349H131.734V207.383H43.0625V43.3203H207.125V207.383Z" fill="url(#paint0_linear_2254_1122)"/>
<defs>
<linearGradient id="paint0_linear_2254_1122" x1="27.4375" y1="125.352" x2="222.75" y2="125.352" gradientUnits="userSpaceOnUse">
<stop stop-color="#0F4A57"/>
<stop offset="1" stop-color="#1DB9C5"/>
</linearGradient>
</defs>
</svg>
